<?xml version="1.0" standalone="no"?>
<!DOCTYPE svg PUBLIC "-//W3C//DTD SVG 20010904//EN"
 "http://www.w3.org/TR/2001/REC-SVG-20010904/DTD/svg10.dtd">
<svg version="1.0" xmlns="http://www.w3.org/2000/svg"
 width="522.000000pt" height="214.000000pt" viewBox="0 0 522.000000 214.000000"
 preserveAspectRatio="xMidYMid meet">
<metadata>
Created by potrace 1.15, written by Peter Selinger 2001-2017
</metadata>
<g transform="translate(0.000000,214.000000) scale(0.100000,-0.100000)"
fill="#ffffff" stroke="none">
<path d="M585 1951 c-11 -5 -26 -20 -34 -34 -11 -20 -33 -31 -100 -52 -113
-36 -173 -67 -191 -100 -23 -43 -18 -97 14 -145 l28 -42 26 25 c25 24 140 82
148 75 1 -2 -49 -208 -111 -458 -63 -250 -115 -469 -115 -486 0 -39 18 -93 39
-118 14 -16 27 -18 96 -13 60 3 100 -1 160 -16 65 -16 100 -19 195 -14 244 11
416 105 495 269 62 130 71 250 25 343 -29 58 -58 80 -131 105 -44 14 -50 19
-34 25 121 45 207 112 250 198 30 61 34 166 9 240 -22 65 -87 129 -160 158
-53 21 -76 23 -239 25 -100 1 -193 7 -208 13 -33 13 -133 14 -162 2z m457
-227 c86 -44 73 -194 -22 -263 -23 -17 -68 -40 -99 -52 -60 -23 -210 -52 -240
-47 -19 3 -17 16 64 355 5 20 13 23 78 26 99 5 187 -3 219 -19z m-95 -547
c115 -60 119 -218 7 -317 -80 -70 -227 -111 -344 -96 -92 11 -90 5 -47 173 21
81 45 171 53 200 l15 52 77 4 c116 6 207 0 239 -16z"/>
<path d="M1751 1935 c-16 -14 -37 -45 -46 -70 -23 -59 -13 -109 30 -152 31
-31 38 -33 99 -33 113 0 186 54 186 139 0 31 -7 49 -31 76 -44 50 -78 65 -148
65 -49 0 -65 -4 -90 -25z"/>
<path d="M1672 1579 c-44 -13 -49 -31 -18 -72 l26 -34 -70 -274 c-88 -348
-123 -507 -115 -537 6 -26 35 -39 91 -42 127 -6 144 4 144 88 0 37 29 173 86
401 91 366 95 398 56 450 -17 24 -26 26 -93 28 -41 1 -89 -3 -107 -8z"/>
<path d="M3183 1575 c-40 -17 -41 -26 -7 -71 l27 -35 -66 -257 c-78 -306 -83
-332 -67 -408 21 -101 61 -158 140 -200 27 -14 56 -19 125 -19 101 0 145 15
228 78 26 20 47 36 47 34 0 -1 -13 -48 -29 -104 -37 -130 -81 -213 -144 -268
-78 -71 -145 -79 -232 -30 -54 30 -87 37 -123 24 -61 -21 -79 -85 -40 -146 29
-49 75 -65 193 -70 257 -12 428 83 526 291 44 94 102 311 220 821 l71 309 -26
23 c-33 28 -101 31 -152 7 -53 -25 -85 -105 -159 -404 -49 -197 -72 -271 -88
-288 -40 -43 -159 -94 -222 -96 -50 -1 -59 2 -81 27 -13 15 -24 38 -24 50 0
12 34 161 76 332 l77 310 -18 38 c-10 21 -30 44 -46 52 -36 19 -163 19 -206 0z"/>
<path d="M4503 1576 c-175 -43 -322 -188 -376 -373 -54 -184 -14 -396 95 -505
144 -144 427 -122 602 47 146 140 225 370 182 529 -18 66 -74 146 -102 146
-16 0 -19 26 -4 35 18 11 11 71 -10 90 -45 41 -272 59 -387 31z m200 -183 c4
-3 5 -19 2 -36 -5 -28 -1 -37 39 -75 42 -39 46 -46 46 -90 0 -149 -109 -356
-214 -406 -87 -41 -180 -1 -221 96 -19 46 -19 155 -1 225 41 154 134 268 241
294 28 6 90 2 108 -8z"/>
<path d="M2206 1538 c-29 -30 -38 -57 -106 -322 -79 -312 -86 -372 -56 -464
20 -61 66 -116 119 -145 34 -18 58 -22 132 -22 76 0 99 4 145 26 31 14 73 41
93 59 20 17 37 29 37 25 0 -25 -67 -229 -90 -275 -34 -67 -104 -137 -150 -150
-48 -14 -101 3 -155 50 -40 35 -52 40 -96 40 -54 0 -84 -20 -95 -65 -14 -57
32 -126 114 -166 42 -22 60 -24 177 -23 107 1 140 4 188 22 183 67 259 199
371 647 145 585 179 736 168 761 -13 27 -62 39 -123 31 -86 -11 -113 -67 -200
-412 -66 -262 -69 -271 -103 -301 -90 -78 -236 -114 -285 -70 -39 36 -36 65
49 405 44 178 78 332 74 343 -8 26 -44 38 -116 38 -55 0 -63 -3 -92 -32z"/>
</g>
</svg>
